<mxfile host="Electron" modified="2024-12-12T00:00:00.000Z" agent="Mozilla/5.0" version="22.1.16" etag="drawio-desktop">
  <diagram name="PEaC Architecture" id="peac-architecture">
    <mxGraphModel dx="1422" dy="794" grid="1" gridSize="10" guides="1" tooltips="1" connect="1" arrows="1" fold="1" page="1" pageScale="1" pageWidth="1169" pageHeight="827" math="0" shadow="0">
      <root>
        <mxCell id="0" />
        <mxCell id="1" parent="0" />
        
        <!-- Title -->
        <mxCell id="title" value="PEaC Architecture Overview" style="text;html=1;strokeColor=none;fillColor=none;align=center;verticalAlign=middle;whiteSpace=wrap;rounded=0;fontSize=18;fontStyle=1" vertex="1" parent="1">
          <mxGeometry x="450" y="20" width="270" height="30" as="geometry" />
        </mxCell>
        
        <!-- External Data Sources Package -->
        <mxCell id="external-package" value="" style="rounded=0;whiteSpace=wrap;html=1;fillColor=none;strokeColor=#000000;strokeWidth=2;dashed=1" vertex="1" parent="1">
          <mxGeometry x="50" y="80" width="280" height="140" as="geometry" />
        </mxCell>
        
        <mxCell id="external-label" value="External Data Sources" style="text;html=1;strokeColor=none;fillColor=none;align=center;verticalAlign=middle;whiteSpace=wrap;rounded=0;fontSize=14;fontStyle=1" vertex="1" parent="1">
          <mxGeometry x="140" y="90" width="100" height="20" as="geometry" />
        </mxCell>
        
        <mxCell id="localfiles" value="Local Files&#xa;(.txt, .pdf, .docx, .xlsx)" style="rounded=1;whiteSpace=wrap;html=1;fillColor=none;strokeColor=#000000;fontStyle=1" vertex="1" parent="1">
          <mxGeometry x="70" y="120" width="100" height="60" as="geometry" />
        </mxCell>
        
        <mxCell id="vectordb" value="Vector Database&#xa;(FAISS)" style="rounded=1;whiteSpace=wrap;html=1;fillColor=none;strokeColor=#000000;fontStyle=1" vertex="1" parent="1">
          <mxGeometry x="200" y="120" width="100" height="60" as="geometry" />
        </mxCell>
        
        <!-- PEaC Core Architecture Package -->
        <mxCell id="core-package" value="" style="rounded=0;whiteSpace=wrap;html=1;fillColor=none;strokeColor=#000000;strokeWidth=2;dashed=1" vertex="1" parent="1">
          <mxGeometry x="360" y="80" width="640" height="420" as="geometry" />
        </mxCell>
        
        <mxCell id="core-label" value="PEaC Core Architecture" style="text;html=1;strokeColor=none;fillColor=none;align=center;verticalAlign=middle;whiteSpace=wrap;rounded=0;fontSize=14;fontStyle=1" vertex="1" parent="1">
          <mxGeometry x="630" y="90" width="100" height="20" as="geometry" />
        </mxCell>
        
        <!-- Providers Module Package -->
        <mxCell id="providers-package" value="" style="rounded=0;whiteSpace=wrap;html=1;fillColor=none;strokeColor=#000000;strokeWidth=1;dashed=1" vertex="1" parent="1">
          <mxGeometry x="380" y="120" width="380" height="200" as="geometry" />
        </mxCell>
        
        <mxCell id="providers-label" value="Providers Module (/peac/providers/)" style="text;html=1;strokeColor=none;fillColor=none;align=center;verticalAlign=middle;whiteSpace=wrap;rounded=0;fontSize=12;fontStyle=1" vertex="1" parent="1">
          <mxGeometry x="520" y="130" width="100" height="20" as="geometry" />
        </mxCell>
        
        <mxCell id="localparser" value="Local File Parser&#xa;(local_parser.py)" style="rounded=1;whiteSpace=wrap;html=1;fillColor=none;strokeColor=#000000;fontStyle=1" vertex="1" parent="1">
          <mxGeometry x="400" y="160" width="110" height="50" as="geometry" />
        </mxCell>
        
        <mxCell id="baseprov" value="Base Provider&#xa;(base.py)" style="rounded=1;whiteSpace=wrap;html=1;fillColor=none;strokeColor=#000000;fontStyle=1" vertex="1" parent="1">
          <mxGeometry x="400" y="230" width="110" height="50" as="geometry" />
        </mxCell>
        
        <mxCell id="pdfprov" value="PDF Provider&#xa;(pdf.py)" style="rounded=1;whiteSpace=wrap;html=1;fillColor=none;strokeColor=#000000;fontStyle=1" vertex="1" parent="1">
          <mxGeometry x="530" y="160" width="100" height="50" as="geometry" />
        </mxCell>
        
        <mxCell id="docxprov" value="DOCX Provider&#xa;(docx.py)" style="rounded=1;whiteSpace=wrap;html=1;fillColor=none;strokeColor=#000000;fontStyle=1" vertex="1" parent="1">
          <mxGeometry x="650" y="160" width="100" height="50" as="geometry" />
        </mxCell>
        
        <mxCell id="xlsxprov" value="XLSX Provider&#xa;(xlsx.py)" style="rounded=1;whiteSpace=wrap;html=1;fillColor=none;strokeColor=#000000;fontStyle=1" vertex="1" parent="1">
          <mxGeometry x="530" y="230" width="100" height="50" as="geometry" />
        </mxCell>
        
        <mxCell id="ragprov" value="RAG Provider&#xa;(rag.py)" style="rounded=1;whiteSpace=wrap;html=1;fillColor=none;strokeColor=#000000;fontStyle=1" vertex="1" parent="1">
          <mxGeometry x="650" y="230" width="100" height="50" as="geometry" />
        </mxCell>
        
        <!-- Core Engine Package -->
        <mxCell id="engine-package" value="" style="rounded=0;whiteSpace=wrap;html=1;fillColor=none;strokeColor=#000000;strokeWidth=1;dashed=1" vertex="1" parent="1">
          <mxGeometry x="790" y="120" width="180" height="200" as="geometry" />
        </mxCell>
        
        <mxCell id="engine-label" value="Core Engine (/peac/core/)" style="text;html=1;strokeColor=none;fillColor=none;align=center;verticalAlign=middle;whiteSpace=wrap;rounded=0;fontSize=12;fontStyle=1" vertex="1" parent="1">
          <mxGeometry x="830" y="130" width="100" height="20" as="geometry" />
        </mxCell>
        
        <mxCell id="promptyaml" value="PromptYaml Class&#xa;(peac.py)" style="rounded=1;whiteSpace=wrap;html=1;fillColor=none;strokeColor=#000000;fontStyle=1" vertex="1" parent="1">
          <mxGeometry x="810" y="160" width="140" height="50" as="geometry" />
        </mxCell>
        
        <mxCell id="yamlparser" value="YAML Parser" style="rounded=1;whiteSpace=wrap;html=1;fillColor=none;strokeColor=#000000;fontStyle=1" vertex="1" parent="1">
          <mxGeometry x="810" y="230" width="140" height="40" as="geometry" />
        </mxCell>
        
        <mxCell id="promptgen" value="Prompt Generator" style="rounded=1;whiteSpace=wrap;html=1;fillColor=none;strokeColor=#000000;fontStyle=1" vertex="1" parent="1">
          <mxGeometry x="810" y="280" width="140" height="40" as="geometry" />
        </mxCell>
        
        <!-- User Interface Layer Package -->
        <mxCell id="ui-package" value="" style="rounded=0;whiteSpace=wrap;html=1;fillColor=none;strokeColor=#000000;strokeWidth=2;dashed=1" vertex="1" parent="1">
          <mxGeometry x="1050" y="80" width="280" height="140" as="geometry" />
        </mxCell>
        
        <mxCell id="ui-label" value="User Interface Layer" style="text;html=1;strokeColor=none;fillColor=none;align=center;verticalAlign=middle;whiteSpace=wrap;rounded=0;fontSize=14;fontStyle=1" vertex="1" parent="1">
          <mxGeometry x="1140" y="90" width="100" height="20" as="geometry" />
        </mxCell>
        
        <mxCell id="gui" value="CustomTkinter GUI&#xa;(/peac/gui_ctk/)" style="rounded=1;whiteSpace=wrap;html=1;fillColor=none;strokeColor=#000000;fontStyle=1" vertex="1" parent="1">
          <mxGeometry x="1070" y="120" width="110" height="60" as="geometry" />
        </mxCell>
        
        <mxCell id="cli" value="CLI Interface&#xa;(main.py)" style="rounded=1;whiteSpace=wrap;html=1;fillColor=none;strokeColor=#000000;fontStyle=1" vertex="1" parent="1">
          <mxGeometry x="1200" y="120" width="110" height="60" as="geometry" />
        </mxCell>
        
        <!-- Output -->
        <mxCell id="output" value="final prompt text" style="rounded=1;whiteSpace=wrap;html=1;fillColor=none;strokeColor=#000000;fontStyle=1" vertex="1" parent="1">
          <mxGeometry x="650" y="570" width="140" height="40" as="geometry" />
        </mxCell>
        
        <!-- API Interface -->
        <mxCell id="api" value="PEaC API" style="ellipse;whiteSpace=wrap;html=1;fillColor=none;strokeColor=#000000;fontStyle=1" vertex="1" parent="1">
          <mxGeometry x="850" y="400" width="100" height="60" as="geometry" />
        </mxCell>
        
        <!-- Connections -->
        <!-- External to Providers -->
        <mxCell id="conn1" value="file content" style="endArrow=classic;html=1;rounded=0;exitX=1;exitY=0.5;exitDx=0;exitDy=0;entryX=0;entryY=0.5;entryDx=0;entryDy=0;" edge="1" parent="1" source="localfiles" target="localparser">
          <mxGeometry width="50" height="50" relative="1" as="geometry">
            <mxPoint x="400" y="350" as="sourcePoint" />
            <mxPoint x="450" y="300" as="targetPoint" />
          </mxGeometry>
        </mxCell>
        
        <mxCell id="conn2" value="vector search" style="endArrow=classic;html=1;rounded=0;exitX=1;exitY=0.5;exitDx=0;exitDy=0;entryX=0;entryY=0.5;entryDx=0;entryDy=0;" edge="1" parent="1" source="vectordb" target="ragprov">
          <mxGeometry width="50" height="50" relative="1" as="geometry">
            <mxPoint x="400" y="350" as="sourcePoint" />
            <mxPoint x="450" y="300" as="targetPoint" />
          </mxGeometry>
        </mxCell>
        
        <!-- Providers to Core -->
        <mxCell id="conn3" value="processed content" style="endArrow=classic;html=1;rounded=0;exitX=1;exitY=0.5;exitDx=0;exitDy=0;entryX=0;entryY=0.5;entryDx=0;entryDy=0;" edge="1" parent="1" source="localparser" target="promptyaml">
          <mxGeometry width="50" height="50" relative="1" as="geometry">
            <mxPoint x="400" y="350" as="sourcePoint" />
            <mxPoint x="450" y="300" as="targetPoint" />
          </mxGeometry>
        </mxCell>
        
        <mxCell id="conn4" value="retrieved context" style="endArrow=classic;html=1;rounded=0;exitX=1;exitY=0.5;exitDx=0;exitDy=0;entryX=0;entryY=0.5;entryDx=0;entryDy=0;" edge="1" parent="1" source="ragprov" target="promptyaml">
          <mxGeometry width="50" height="50" relative="1" as="geometry">
            <mxPoint x="400" y="350" as="sourcePoint" />
            <mxPoint x="450" y="300" as="targetPoint" />
          </mxGeometry>
        </mxCell>
        
        <!-- Provider inheritance -->
        <mxCell id="conn5" value="implements" style="endArrow=classic;html=1;rounded=0;exitX=1;exitY=0.5;exitDx=0;exitDy=0;entryX=0;entryY=0.5;entryDx=0;entryDy=0;" edge="1" parent="1" source="baseprov" target="pdfprov">
          <mxGeometry width="50" height="50" relative="1" as="geometry">
            <mxPoint x="400" y="350" as="sourcePoint" />
            <mxPoint x="450" y="300" as="targetPoint" />
          </mxGeometry>
        </mxCell>
        
        <mxCell id="conn6" value="implements" style="endArrow=classic;html=1;rounded=0;exitX=1;exitY=0.5;exitDx=0;exitDy=0;entryX=0;entryY=0.5;entryDx=0;entryDy=0;" edge="1" parent="1" source="baseprov" target="xlsxprov">
          <mxGeometry width="50" height="50" relative="1" as="geometry">
            <mxPoint x="400" y="350" as="sourcePoint" />
            <mxPoint x="450" y="300" as="targetPoint" />
          </mxGeometry>
        </mxCell>
        
        <mxCell id="conn7" value="implements" style="endArrow=classic;html=1;rounded=0;exitX=0.5;exitY=0;exitDx=0;exitDy=0;entryX=0.5;entryY=1;entryDx=0;entryDy=0;" edge="1" parent="1" source="baseprov" target="docxprov">
          <mxGeometry width="50" height="50" relative="1" as="geometry">
            <mxPoint x="400" y="350" as="sourcePoint" />
            <mxPoint x="450" y="300" as="targetPoint" />
          </mxGeometry>
        </mxCell>
        
        <!-- Local parser uses providers -->
        <mxCell id="conn8" value="uses" style="endArrow=classic;html=1;rounded=0;exitX=1;exitY=0.5;exitDx=0;exitDy=0;entryX=0;entryY=0.5;entryDx=0;entryDy=0;" edge="1" parent="1" source="localparser" target="pdfprov">
          <mxGeometry width="50" height="50" relative="1" as="geometry">
            <mxPoint x="400" y="350" as="sourcePoint" />
            <mxPoint x="450" y="300" as="targetPoint" />
          </mxGeometry>
        </mxCell>
        
        <!-- Core engine internal -->
        <mxCell id="conn9" value="parses to" style="endArrow=classic;html=1;rounded=0;exitX=0.5;exitY=0;exitDx=0;exitDy=0;entryX=0.5;entryY=1;entryDx=0;entryDy=0;" edge="1" parent="1" source="yamlparser" target="promptyaml">
          <mxGeometry width="50" height="50" relative="1" as="geometry">
            <mxPoint x="400" y="350" as="sourcePoint" />
            <mxPoint x="450" y="300" as="targetPoint" />
          </mxGeometry>
        </mxCell>
        
        <mxCell id="conn10" value="generates" style="endArrow=classic;html=1;rounded=0;exitX=0.5;exitY=1;exitDx=0;exitDy=0;entryX=0.5;entryY=0;entryDx=0;entryDy=0;" edge="1" parent="1" source="promptyaml" target="promptgen">
          <mxGeometry width="50" height="50" relative="1" as="geometry">
            <mxPoint x="400" y="350" as="sourcePoint" />
            <mxPoint x="450" y="300" as="targetPoint" />
          </mxGeometry>
        </mxCell>
        
        <!-- UI to Core -->
        <mxCell id="conn11" value="YAML configuration" style="endArrow=classic;html=1;rounded=0;exitX=0;exitY=0.5;exitDx=0;exitDy=0;entryX=1;entryY=0.5;entryDx=0;entryDy=0;" edge="1" parent="1" source="gui" target="promptyaml">
          <mxGeometry width="50" height="50" relative="1" as="geometry">
            <mxPoint x="400" y="350" as="sourcePoint" />
            <mxPoint x="450" y="300" as="targetPoint" />
          </mxGeometry>
        </mxCell>
        
        <mxCell id="conn12" value="YAML files" style="endArrow=classic;html=1;rounded=0;exitX=0;exitY=0.5;exitDx=0;exitDy=0;entryX=1;entryY=0.5;entryDx=0;entryDy=0;" edge="1" parent="1" source="cli" target="promptyaml">
          <mxGeometry width="50" height="50" relative="1" as="geometry">
            <mxPoint x="400" y="350" as="sourcePoint" />
            <mxPoint x="450" y="300" as="targetPoint" />
          </mxGeometry>
        </mxCell>
        
        <!-- Core to Output -->
        <mxCell id="conn13" value="assembled data" style="endArrow=classic;html=1;rounded=0;exitX=0.5;exitY=1;exitDx=0;exitDy=0;entryX=0.5;entryY=0;entryDx=0;entryDy=0;" edge="1" parent="1" source="promptgen" target="output">
          <mxGeometry width="50" height="50" relative="1" as="geometry">
            <mxPoint x="400" y="350" as="sourcePoint" />
            <mxPoint x="450" y="300" as="targetPoint" />
          </mxGeometry>
        </mxCell>
        
        <!-- Core to API -->
        <mxCell id="conn14" value="programmatic access" style="endArrow=classic;html=1;rounded=0;exitX=1;exitY=0.5;exitDx=0;exitDy=0;entryX=0;entryY=0.5;entryDx=0;entryDy=0;" edge="1" parent="1" source="engine-package" target="api">
          <mxGeometry width="50" height="50" relative="1" as="geometry">
            <mxPoint x="400" y="350" as="sourcePoint" />
            <mxPoint x="450" y="300" as="targetPoint" />
          </mxGeometry>
        </mxCell>
        
      </root>
    </mxGraphModel>
  </diagram>
</mxfile>